<mxfile host="app.diagrams.net" modified="2023-06-08T01:08:10.788Z" agent="Mozilla/5.0 (Macintosh; Intel Mac OS X 10_15_7) AppleWebKit/537.36 (KHTML, like Gecko) Chrome/98.0.4758.102 Safari/537.36 NetType/WIFI MicroMessenger/6.8.0(0x16080000) MacWechat/3.8(0x13080010) XWEB/30515 Flue" version="21.3.5" etag="kJAAJf2DufEzTRe6hDD2" type="github">
  <diagram name="第 1 页" id="Wh3Oj9J0w-vkGkBcgPzM">
    <mxGraphModel>
      <root>
        <mxCell id="0" />
        <mxCell id="1" parent="0" />
      </root>
    </mxGraphModel>
  </diagram>
</mxfile>
